<?xml version="1.0" encoding="utf-8"?>
<!-- Generator: Adobe Illustrator 23.0.3, SVG Export Plug-In . SVG Version: 6.00 Build 0)  -->
<svg version="1.1" id="b348f774-71f5-4fb8-bb01-c5856b709843"
	 xmlns="http://www.w3.org/2000/svg" xmlns:xlink="http://www.w3.org/1999/xlink" x="0px" y="0px" viewBox="0 0 594 636.2"
	 style="enable-background:new 0 0 594 636.2;" xml:space="preserve">
<style type="text/css">
	.st0{fill:url(#SVGID_1_);}
	.st1{fill:url(#SVGID_2_);}
	.st2{fill:#7B6533;}
	.st3{fill:#B19046;}
	.st4{fill:#FECF66;}
	.st5{fill:#353535;}
</style>
<title>logo mdr lol</title>
<linearGradient id="SVGID_1_" gradientUnits="userSpaceOnUse" x1="330.9911" y1="556.1919" x2="330.9911" y2="-37.8259" gradientTransform="matrix(1 0 0 -1 -33.9822 598.4029)">
	<stop  offset="0" style="stop-color:#FECF66"/>
	<stop  offset="0.4285" style="stop-color:#FECF66"/>
	<stop  offset="0.499" style="stop-color:#FECF66"/>
	<stop  offset="0.4999" style="stop-color:#FCCD65"/>
	<stop  offset="0.5003" style="stop-color:#F5C862"/>
	<stop  offset="0.5005" style="stop-color:#EABE5D"/>
	<stop  offset="0.5007" style="stop-color:#D9B056"/>
	<stop  offset="0.5009" style="stop-color:#C39F4D"/>
	<stop  offset="0.501" style="stop-color:#B19046"/>
	<stop  offset="0.5715" style="stop-color:#B19046"/>
	<stop  offset="1" style="stop-color:#B19046"/>
</linearGradient>
<path class="st0" d="M594,339.2c0,164-133,297-297,297c-164,0-297-133-297-297c0-164,133-297,297-297C461,42.2,594,175.2,594,339.2"
	/>
<linearGradient id="SVGID_2_" gradientUnits="userSpaceOnUse" x1="29.5029" y1="-142.9594" x2="29.5029" y2="412.8795" gradientTransform="matrix(1 0 0 1 270.5493 204.2599)">
	<stop  offset="0" style="stop-color:#6087B6"/>
	<stop  offset="0.2251" style="stop-color:#5E84B3"/>
	<stop  offset="0.4059" style="stop-color:#567BA9"/>
	<stop  offset="0.5713" style="stop-color:#4A6D98"/>
	<stop  offset="0.7276" style="stop-color:#385880"/>
	<stop  offset="0.876" style="stop-color:#213E62"/>
	<stop  offset="1" style="stop-color:#0A2242"/>
</linearGradient>
<path class="st1" d="M578,339.2c0,153.5-124.4,277.9-277.9,277.9c-153.5,0-277.9-124.4-277.9-277.9c0-153.5,124.4-277.9,277.9-277.9
	C453.5,61.3,578,185.7,578,339.2"/>
<polygon class="st2" points="53.1,550.3 0.9,633.3 161.1,633.3 160.1,550.3 "/>
<polygon class="st3" points="153.4,0 0.9,0 75.2,119.5 74.1,516.9 53.1,550.3 160.1,550.3 "/>
<polygon class="st3" points="161.1,633.3 456.5,633.3 519.8,550.3 160.1,550.3 "/>
<polygon class="st4" points="260.3,478.3 260.3,0 153.4,0 160.1,550.3 519.8,550.3 574.9,478.3 "/>
<path class="st5" d="M461.5,336.1c-0.9-2.1-23.1-50.9-68.8-50.9c-45.7,0-67.9,48.8-68.8,50.9c-1.7,3.9,0.1,8.5,4,10.2
	c2.5,1.1,5.4,0.8,7.7-0.8c0.2-0.1,19.5-13.9,57.2-13.9c37.5,0,56.7,13.6,57.2,13.9c1.3,1,2.9,1.5,4.6,1.5c4.3,0,7.7-3.4,7.7-7.7
	C462.2,338.1,461.9,337.1,461.5,336.1L461.5,336.1z M276.2,336.1c-0.9-2.1-23.1-50.9-68.8-50.9c-45.7,0-67.9,48.8-68.8,50.9
	c-1.7,3.9,0.1,8.5,4,10.2c2.5,1.1,5.5,0.8,7.7-0.8c0.2-0.1,19.5-13.9,57.2-13.9c37.5,0,56.7,13.6,57.2,13.9c1.3,1,2.9,1.5,4.6,1.5
	c4.3,0,7.7-3.4,7.7-7.7C276.9,338.1,276.7,337.1,276.2,336.1z M500.8,308.3c-6.3,0-12-3.9-14.3-9.7c-27.5-68.6-96.1-83.1-96.8-83.2
	c-8.4-1.7-13.8-9.8-12.1-18.2l0,0c1.7-8.4,9.8-13.8,18.2-12.1c3.5,0.7,85.8,18,119.4,102c3.2,7.9-0.7,16.9-8.6,20.1
	C504.7,308,502.7,308.3,500.8,308.3z M99.3,308.3c-8.5,0-15.4-6.9-15.4-15.5c0-2,0.4-3.9,1.1-5.7l0,0c33.6-84,115.9-101.3,119.4-102
	c8.4-1.7,16.5,3.7,18.2,12.1c1.7,8.3-3.7,16.5-12.1,18.2c-2.9,0.6-69.6,15.1-96.8,83.2C111.3,304.5,105.6,308.3,99.3,308.3
	L99.3,308.3z M300.1,401c-55.9,0-93.1-6.5-139-15.4c-10.5-2-30.9,0-30.9,30.9c0,61.8,70.9,139,169.8,139
	c98.9,0,169.8-77.2,169.8-139c0-30.9-20.4-32.9-30.9-30.9C393.1,394.5,356,401,300.1,401z"/>
</svg>
